<?xml version="1.0" standalone="no"?>
<!DOCTYPE svg PUBLIC "-//W3C//DTD SVG 1.1//EN" "http://www.w3.org/Graphics/SVG/1.1/DTD/svg11.dtd">
<svg t="1545987384955"
	class="icon" 
	style="" 
	viewBox="0 0 1024 1024" 
	version="1.1" 
	xmlns="http://www.w3.org/2000/svg" 
	p-id="934" 
	xmlns:xlink="http://www.w3.org/1999/xlink"
	width="200" 
	height="200">
	<defs>
		<style type="text/css"></style>
	</defs>
	<path d="M979.251181 135.284278l-59.241701 59.241701a63.975919 63.975919 0 1 1-90.461949-90.461949l59.241701-59.241701c-64.42375-28.21338-142.250456-16.105938-194.950619 36.626213-45.246969 45.246969-60.36128 108.95099-45.966698 166.833203L248.3423 647.795366c-57.882213-14.394582-121.586234 0.719729-166.833203 45.966698-52.732151 52.716157-64.839594 130.526869-36.626213 194.950619l59.241701-59.241701a63.975919 63.975919 0 1 1 90.461949 90.461949L135.344833 979.190627c64.42375 28.21338 142.250456 16.105938 194.950619-36.626214 45.262963-45.246969 60.36128-108.95099 45.982692-166.833203L775.791765 376.217589c57.882213 14.394582 121.586234-0.719729 166.833203-45.966697 52.732151-52.716157 64.839594-130.526869 36.626213-194.966614z"
		fill="#A5B7C3" 
		p-id="935"></path>
	<path d="M694.334426 329.227277a31.716062 31.716062 0 0 0-44.847119 0l-320.199475 320.215469a31.716062 31.716062 0 0 0 44.847119 44.847119l320.215469-320.215469a31.700068 31.700068 0 0 0-0.015994-44.847119z"
		fill="#8094A1" 
		p-id="936"></path>
	<path d="M636.676129 318.015497L318.076052 636.59958a48.717662 48.717662 0 0 0 68.886071 68.886071l318.584083-318.584083a48.717662 48.717662 0 0 0-68.870077-68.886071z m46.734409 43.759529L361.835581 683.349983a15.274251 15.274251 0 0 1-21.607867-21.607867l321.558963-321.558963a15.274251 15.274251 0 0 1 21.623861 21.591873zM191.707618 702.686704s-14.378588 3.870543-14.378588 14.554522c0 11.947503 15.194281 15.034341 15.194281 15.034341a90.973757 90.973757 0 0 1 72.708632 26.566 90.973757 90.973757 0 0 1 26.566 72.708632s2.383103 15.194281 15.034341 15.194281c10.699972 0 14.554522-14.378588 14.554522-14.378588 2.015241-33.043562-10.092201-67.494595-36.146395-93.548787-26.038199-26.038199-60.489231-38.145642-93.532793-36.130401zM996.572662 95.635202l-83.072731 83.072731c-19.1288 19.1288-49.901217 19.400697-68.726131 0.591777-18.80892-18.824914-18.537023-49.597331 0.591777-68.726131l52.972061-52.972061 30.116664-30.100669C854.306212-15.826843 760.757424-9.189341 696.205722 55.362361a196.214144 196.214144 0 0 0-54.347544 175.50194L230.924856 641.781629a196.214144 196.214144 0 0 0-175.50194 54.347544c-64.551702 64.551702-71.189204 158.116484-27.861513 232.24858l83.072731-83.072731c19.1288-19.1288 49.901217-19.400697 68.726131-0.591777 18.80892 18.824914 18.537023 49.597331-0.591777 68.726131l-52.972061 52.972061-30.116664 30.10067c74.14809 43.327691 167.696878 36.69019 232.24858-27.861513a196.214144 196.214144 0 0 0 54.347544-175.50194l410.917328-410.917328a196.214144 196.214144 0 0 0 175.50194-54.347544c64.567696-64.567696 71.205198-158.116484 27.877507-232.24858z m-50.572964 209.521135a162.930672 162.930672 0 0 1-163.1226 40.864619l0.959639 0.959638-436.795588 436.795588-0.959638-0.959639a162.898684 162.898684 0 0 1-40.864619 163.1226c-42.71992 42.735914-98.810807 53.068025-152.694525 39.153262l48.957572-48.957572c31.891996-31.891996 32.323833-83.168695 0.991627-114.532889-31.364194-31.3482-82.640893-30.916363-114.532889 0.991627L38.981105 871.551143c-13.914762-53.883718-3.582651-109.974605 39.153262-152.694525a162.930672 162.930672 0 0 1 163.1226-40.864618l-0.959639-0.959639 436.795588-436.795588 0.959639 0.959639a162.898684 162.898684 0 0 1 40.864618-163.122599c42.71992-42.735914 98.810807-53.068025 152.694525-39.153263l-48.957572 48.957572c-31.891996 31.891996-32.323833 83.168695-0.991627 114.532889 31.364194 31.3482 82.640893 30.916363 114.532889-0.991627l48.957572-48.957572c13.914762 53.899712 3.582651 109.974605-39.153262 152.694525z m-114.388944-13.418949a90.973757 90.973757 0 0 1-72.708632-26.566 90.973757 90.973757 0 0 1-26.566-72.708632s-0.991627-15.194281-15.034341-15.194281c-11.179792 0-14.554522 14.378588-14.554522 14.378588-2.015241 33.043562 10.092201 67.494595 36.146395 93.548787s60.489231 38.161636 93.548787 36.146395c0 0 14.378588-2.207169 14.378588-14.554522 0-13.370967-15.210275-15.050335-15.210275-15.050335z"
		fill="#2B3139" 
		p-id="937"></path>
</svg>